<?xml version="1.0" encoding="UTF-8"?>
<svg id="Layer_1" data-name="Layer 1" xmlns="http://www.w3.org/2000/svg" viewBox="0 0 293.73 305.21">
  <defs>
    <style>
      .cls-1 {
        fill: #fff;
      }
    </style>
  </defs>
  <path class="cls-1" d="M293.47,284.49c-3.88-10.35-5.82-21.93-6.82-34.09-.24-2.88-1.96-5.43-4.54-6.72-38.11-19.08-18.72-29.29-20.35-54.55-.32-4.92,2.05-9.57,6.19-12.26,15.84-10.3,18.38-32.03,10.77-45.61-4.56-8.71-16.4-25.08-47.75-30.66-12.07-2.29-19.08-6.15-24.95-14.7-1.27-1.85-.77-4.4.94-5.84,1.23-1.04,2.64-2.09,4.04-3.08,5.05-3.57,8.03-9.39,7.91-15.58-.08-4.58-.06-9.16,1.38-13.21.78-2.2-.87-4.48-3.2-4.35-14.5.83-22.34,8.31-23.94,22.01-.61,5.22-.11,10.53,1.39,15.57,4.99,16.73,17.38,23.19,31.26,27.57,1.38.44,2.77.81,4.18,1.13,28.88,6.63,35.57,19.41,38.09,24.88,2.27,4.93,3.64,10.46,2.81,15.81-.61,3.97-2.3,7.01-4.82,9.29-4.14,3.75-10.13,4.67-15.38,2.76l-34.26-12.45c-20.49-7.45-43.07,3.49-49.94,24.18l-5.87,17.68c-1.35,4.06,2.69,7.93,6.63,6.27.07-.03.15-.06.22-.09,5.46-2.24,11.67-1.28,16.45,2.18,15.99,11.56,14.22,32.49,78.7,57.96,4.47,1.76,8.3,4.97,10.44,9.27,2.37,4.78,2.7,10.41-.45,14.9-2.71,4.85-7.55,6.94-13.48,7.6-2.02.22-3.72,1.63-4.31,3.58l-2.09,6.91c-.65,2.16.96,4.34,3.22,4.34h28.17c1.83,0,3.32-1.46,3.37-3.29.13-5.11,1.95-9.54,5.26-13.38.97-1.12,1.25-2.66.73-4.05Z"/>
  <path class="cls-1" d="M214.73,253.73c-17.19-12.07-24.02-27.4-33.28-39.57-3.03-3.98-9.37-3.22-11.85,1.14-19.61,34.47,11.4,43.49,21.73,50.12,1.85,1.19,3.01,3.2,3.17,5.39,1,13.07-9.83,18.14-22.09,19.5-2.3.25-4.21,1.9-4.88,4.11l-1.97,6.5c-.65,2.14.95,4.29,3.18,4.29h28.28c1.82,0,3.27-1.47,3.32-3.29.18-5.49,2.35-10.95,7.46-13.9,1.57-.91,2.56-2.55,2.56-4.36.01-8.18,2.11-15.45,6.06-21.93,1.64-2.69.87-6.19-1.7-7.99Z"/>
  <path class="cls-1" d="M61.58,212.91c1.81,1.83,2.2,4.61,1.09,6.93-6.7,14.02-17.7,54.67-17.72,63.81,0,1.81-.99,3.45-2.56,4.36-5.11,2.96-7.29,8.42-7.46,13.91-.06,1.81-1.49,3.28-3.31,3.28H3.33c-2.23,0-3.83-2.15-3.18-4.29l1.97-6.5c.68-2.26,2.66-3.86,5-4.13,13.07-1.49,19.29-8.76,21.57-22.46l11.71-74.05c.43-2.75,4.03-3.48,5.53-1.14,4.96,7.75,10.13,14.68,15.66,20.27Z"/>
  <path class="cls-1" d="M73.77,5.93c-.23.14-.43.31-.59.51-.88,1.06-.46,2.7.74,3.4l3.13,1.84c1.42.83,1.48,2.87.11,3.79h0c-7.8,6.87-32.9,6.96-43.52,26.89-.89,1.67.21,3.72,2.1,3.91l2.51.24c1.66.16,2.69,1.62,2.35,3.25-2.5,11.74-16.9,24.3-18.83,36.17-.3,1.86,1.44,3.5,3.26,3.03,1.62-.42,3.22.73,3.33,2.39.82,11.95-8.33,27.69-4.48,41.34.46,1.64,2.34,2.42,3.84,1.61l.35-.19c1.52-.83,3.22-.17,3.79,1.47,2.74,7.78-.74,26.36,4.27,35.54,1.15,2.1,3.88,2.71,5.83,1.33l1.81-1.28c2.11-1.5,5.05-.62,6.04,1.78,9.25,22.57,23.11,37.73,41.25,46.06,2.29,1.05,5.05-.01,6.11-2.3,1.5-3.24,3-6.43,4.55-9.09,1.96-3.38,7.05-2.24,7.42,1.65,1.46,15.52-2.59,37.14-6.48,58.58-2.29,13.69-8.5,20.97-21.57,22.46-2.34.27-4.32,1.87-5,4.13l-1.97,6.5c-.65,2.14.95,4.29,3.18,4.29h28.31c1.82,0,3.25-1.47,3.3-3.28.17-5.49,2.35-10.96,7.46-13.91,1.57-.91,2.56-2.55,2.56-4.36,11.21-76.36,47.43-89.61,34.5-151.98-.45-2.19,2.53-3.32,3.65-1.39.45.78.86,1.63,1.25,2.52.51,1.15,1.99,1.49,2.96.69,5.88-4.88,3.62-18.54,6.11-23.96.47-1.03,1.56-1.63,2.67-1.37.44.11,1.23.42,2.03.79,1.26.58,2.73-.21,2.92-1.58,2.94-21.17-4.35-28.85-5.58-36.75-.17-1.11.92-2.02,1.99-1.67.46.15.93.36,1.41.61,1.08.55,2.37-.17,2.42-1.38,1.86-49.53-68.8-82.17-101.48-62.25ZM71.61,59.09c-.05,0-.1,0-.16,0-3.5-.34-7.02-2.65-8.03-5.74-1.42-4.34,1.34-10.86,5.27-13.53.8-.54,1.85-.53,2.4.35.41.65.23,1.53-.34,2.05-2.83,2.55-4.54,6.51-3.5,9.69.61,1.87,2.26,3.15,4.51,4.03.81.32,1.51.86,1.42,1.73-.08.82-.77,1.43-1.57,1.43ZM148.72,96.96c-2.37.04-.41-4.18-.81-8.01-.34-2.25-.95-4.41-1.28-6.38-.45-2.68.32-5.41,2.07-7.47,1.16-1.37,2.54-2.9,3.47-4.68.4-.77,1.2-1.25,2.08-1.24.25,0,.49.11.67.29,4.8,4.72,1.79,26.74-6.2,27.5ZM159.26,63.28c-.2.48-.8.65-1.22.34-.5-.36-1.02-.78-1.45-1.16-.59-.52-.83-1.32-.62-2.08.23-.85.41-1.93.62-2.71.14-.53.49-.98.98-1.24.82-.44,1.72-1.1,2.33-1.62.34-.29.88-.12.96.32.42,2.28-.34,5.1-1.59,8.15ZM160.51,50.12c-4.45,1.18-17-1.1-21.9-.3-.93.15-1.71.9-1.78,1.85-.13,1.66.95,2.99,2.64,4.16,2.7,1.36,4.67.3,7.37,1,.24.06.48.16.69.29,1.23.79,1.98,2.12,1.86,4.47-.02.48-.19.95-.48,1.33-1.31,1.7-4.64,3.89-7.9,5.38-3.21,1.47-6.84,1.95-10.27,1.12-2.99-.73-5.05-2.17-6.23-4.29-.56-1.01-.83-2.15-.93-3.3l-.19-2.22c-.16-1.86-1.22-3.52-2.85-4.43-4.47-2.5-12.75-6.13-14.98-18.99-.16-.91.77-1.68,1.61-1.29,7.63,3.48,13.02,18.82,24.23,9.24.98-.84.86-2.4-.25-3.06-5.37-3.17-19.81-9.15-18.93-16.12.81-2.23,9.52,7.21,21.1,10.87,1.02.31,2,.54,2.88.52.65,0,1.05-.72.73-1.29-1.31-2.33-4.84-6.51-4.94-8.18-.02-.32.28-.6.59-.51,1.97.57,8.4,7.22,17.06,9.93.86.27,1.1,1.37.45,1.98-1.04.99-2.29,1.5-2.92,2.07-.4.36-.28,1.02.21,1.25,5.23,2.37,11.33,4.59,13.49,7.46.28.38.1.94-.35,1.06Z"/>
</svg>